<svg width="45" height="45" viewBox="0 0 45 45" fill="none" xmlns="http://www.w3.org/2000/svg">
<g clip-path="url(#clip0_87_327)">
<path d="M22.5 0C18.0499 0 13.6998 1.3196 9.99968 3.79193C6.29957 6.26427 3.41569 9.77829 1.71272 13.8896C0.00974894 18.001 -0.435826 22.525 0.432341 26.8895C1.30051 31.2541 3.44343 35.2632 6.59011 38.4099C9.73679 41.5566 13.7459 43.6995 18.1105 44.5677C22.4751 45.4358 26.9991 44.9903 31.1104 43.2873C35.2217 41.5843 38.7357 38.7004 41.2081 35.0003C43.6804 31.3002 45 26.9501 45 22.5C45 16.5326 42.6295 10.8097 38.4099 6.5901C34.1903 2.37053 28.4674 0 22.5 0V0ZM29.8809 36.9938H15.1191C14.6218 36.9938 14.1449 36.7962 13.7932 36.4446C13.4416 36.0929 13.2441 35.616 13.2441 35.1188C13.2441 34.6215 13.4416 34.1446 13.7932 33.7929C14.1449 33.4413 14.6218 33.2438 15.1191 33.2438H29.8809C30.3782 33.2438 30.8551 33.4413 31.2068 33.7929C31.5584 34.1446 31.7559 34.6215 31.7559 35.1188C31.7559 35.616 31.5584 36.0929 31.2068 36.4446C30.8551 36.7962 30.3782 36.9938 29.8809 36.9938ZM31.2066 22.89L23.82 30.2813C23.4684 30.6328 22.9916 30.8302 22.4944 30.8302C21.9972 30.8302 21.5204 30.6328 21.1688 30.2813L13.7934 22.9069C13.4411 22.5553 13.2429 22.0782 13.2424 21.5804C13.2418 21.0827 13.4391 20.6051 13.7906 20.2528C14.1422 19.9005 14.6194 19.7023 15.1171 19.7017C15.6148 19.7012 16.0924 19.8984 16.4447 20.25L20.625 24.4303V7.84219C20.625 7.34491 20.8226 6.86799 21.1742 6.51636C21.5258 6.16473 22.0027 5.96719 22.5 5.96719C22.9973 5.96719 23.4742 6.16473 23.8258 6.51636C24.1775 6.86799 24.375 7.34491 24.375 7.84219V24.4191L28.5553 20.2388C28.909 19.8972 29.3826 19.7082 29.8742 19.7125C30.3658 19.7168 30.8361 19.9139 31.1837 20.2616C31.5314 20.6092 31.7286 21.0795 31.7328 21.5711C31.7371 22.0627 31.5481 22.5364 31.2066 22.89Z" fill="black"/>
</g>
<defs>
<clipPath id="clip0_87_327">
<rect width="45" height="45" fill="white"/>
</clipPath>
</defs>
</svg>
