<svg width="45" height="45" viewBox="0 0 45 45" fill="none" xmlns="http://www.w3.org/2000/svg">
<path d="M22.5 0C10.0936 0 0 10.0936 0 22.5C0 34.9055 10.0936 45 22.5 45C34.9055 45 45 34.9055 45 22.5C45 10.0936 34.9074 0 22.5 0ZM28.0955 23.2921H24.435V36.3393H19.0107C19.0107 36.3393 19.0107 29.2103 19.0107 23.2921H16.4323V18.6808H19.0107V15.6982C19.0107 13.562 20.0258 10.2241 24.4848 10.2241L28.5043 10.2395V14.7157C28.5043 14.7157 26.0618 14.7157 25.5869 14.7157C25.112 14.7157 24.4368 14.9532 24.4368 15.9719V18.6817H28.5695L28.0955 23.2921Z" fill="black"/>
</svg>
