<svg width="45" height="45" viewBox="0 0 45 45" fill="none" xmlns="http://www.w3.org/2000/svg">
<path d="M33.0469 2.63672C30.6035 2.63672 28.3623 3.41016 26.3936 4.93945C24.5039 6.39844 23.2383 8.26172 22.5 9.61523C21.7617 8.26172 20.4961 6.39844 18.6064 4.93066C16.6377 3.41016 14.3965 2.63672 11.9531 2.63672C5.1416 2.63672 0 8.20898 0 15.6006C0 23.5898 6.40723 29.0479 16.1191 37.3184C17.7715 38.7246 19.6348 40.3154 21.5771 42.0117C21.832 42.2314 22.166 42.3633 22.5 42.3633C22.834 42.3633 23.168 42.2402 23.4229 42.0117C25.3652 40.3154 27.2285 38.7246 28.8809 37.3184C38.5928 29.0479 45 23.5898 45 15.6006C45 8.20898 39.8584 2.63672 33.0469 2.63672Z" fill="#D74D2F"/>
</svg>
