<svg width="44" height="44" viewBox="0 0 44 44" fill="none" xmlns="http://www.w3.org/2000/svg">
<path d="M4.45233 17.1575C4.0883 17.3438 3.83628 17.6885 3.77095 18.089L0 41.6487L17.632 24.0511C17.5573 23.4363 17.7533 22.8028 18.22 22.337C18.612 21.9458 19.1348 21.7315 19.6948 21.7315C20.2455 21.7315 20.7682 21.9458 21.1602 22.337C21.9723 23.1475 21.9723 24.461 21.1602 25.2715C20.7682 25.6628 20.2455 25.877 19.6948 25.877C19.6108 25.877 19.5268 25.8677 19.4428 25.8584L1.8108 43.4559L25.4072 39.6924C25.8086 39.6272 26.1633 39.3756 26.3406 39.0123L32.3237 27.2837L16.2039 11.186L4.45233 17.1575Z" fill="#D1B57D"/>
<path d="M43.1699 17.325L26.182 0.370303C25.6873 -0.123434 24.8752 -0.123434 24.3712 0.370303L17.576 7.1522C17.3333 7.39441 17.2026 7.72047 17.2026 8.05583C17.2026 8.3912 17.3333 8.71726 17.576 8.95947L34.5733 25.9142C34.8159 26.1564 35.1426 26.2868 35.4787 26.2868C35.8147 26.2868 36.1414 26.1564 36.3841 25.9142L43.1792 19.1323C43.6739 18.6386 43.6739 17.8281 43.1699 17.325Z" fill="#D1B57D"/>
</svg>
