<svg width="111" height="94" viewBox="0 0 111 94" fill="none" xmlns="http://www.w3.org/2000/svg">
<path opacity="0.5" d="M50.9227 17.5889L41.4819 0C19.1675 10.3804 0 30.8528 0 60.8405C0 79.2945 11.1572 94 26.6057 94C41.482 94 50.6366 83.908 50.6366 71.2209C50.6366 58.5337 42.0541 48.7301 29.4665 48.7301C27.1778 48.7301 25.1752 49.3067 24.317 49.5951C24.317 42.6748 32.6134 25.9509 50.9227 17.5889ZM111 17.5889L101.559 0C79.2448 10.3804 60.0773 30.8528 60.0773 60.8405C60.0773 79.2945 71.2345 94 86.683 94C101.559 94 110.714 83.908 110.714 71.2209C110.714 58.5337 102.131 48.7301 89.5438 48.7301C87.2551 48.7301 85.2526 49.3067 84.3943 49.5951C84.3943 42.6748 92.6907 25.9509 111 17.5889Z" fill="#EBE6DD"/>
</svg>
