<svg width="45" height="45" viewBox="0 0 45 45" fill="none" xmlns="http://www.w3.org/2000/svg">
<path d="M22.5 0C10.0936 0 0 10.0936 0 22.5C0 34.9055 10.0936 45 22.5 45C34.9055 45 45 34.9055 45 22.5C45 10.0936 34.9074 0 22.5 0ZM32.5374 17.3504C32.5473 17.5733 32.5528 17.7981 32.5528 18.0228C32.5528 24.8664 27.3451 32.7549 17.8171 32.7549C14.8925 32.7549 12.1699 31.9002 9.87875 30.4302C10.2839 30.4782 10.6962 30.5027 11.1141 30.5027C13.5411 30.5027 15.7734 29.6743 17.5461 28.2859C15.2804 28.2442 13.3671 26.747 12.7082 24.6887C13.0236 24.7485 13.349 24.7821 13.6816 24.7821C14.1538 24.7821 14.6124 24.7205 15.0465 24.6017C12.6774 24.1268 10.8929 22.0342 10.8929 19.5237C10.8929 19.5019 10.8929 19.4793 10.8938 19.4584C11.5917 19.8454 12.3901 20.0793 13.2384 20.1055C11.85 19.1784 10.9355 17.5923 10.9355 15.796C10.9355 14.8462 11.1902 13.9562 11.6361 13.1913C14.1892 16.3253 18.0065 18.3863 22.3097 18.6038C22.2209 18.224 22.1764 17.8298 22.1764 17.4229C22.1764 14.5635 24.4948 12.2442 27.3542 12.2442C28.8442 12.2442 30.1882 12.8732 31.1344 13.8792C32.3153 13.6472 33.421 13.2176 34.4243 12.6221C34.0346 13.8321 33.2162 14.8462 32.144 15.4879C33.1926 15.3628 34.1932 15.0855 35.1185 14.6731C34.4279 15.7099 33.5497 16.6226 32.5374 17.3504Z" fill="black"/>
</svg>
