<svg width="45" height="45" viewBox="0 0 45 45" fill="none" xmlns="http://www.w3.org/2000/svg">
<path d="M41.7168 6.52777C39.4973 4.00935 36.4182 2.62244 33.0469 2.62244C28.3054 2.62244 25.3034 5.45427 23.6202 7.82996C23.1834 8.44642 22.8119 9.06456 22.5 9.64622C22.1881 9.06456 21.8167 8.44642 21.3798 7.82996C19.6966 5.45427 16.6946 2.62244 11.9531 2.62244C8.58182 2.62244 5.50274 4.00944 3.28315 6.52786C1.16604 8.93026 0 12.1478 0 15.5876C0 19.332 1.46188 22.8147 4.60064 26.5476C7.40584 29.8839 11.4415 33.3229 16.1147 37.3051C17.8561 38.7891 19.6569 40.3237 21.5741 42.001L21.6316 42.0515C21.8802 42.2691 22.1901 42.3778 22.5 42.3778C22.8099 42.3778 23.1198 42.269 23.3684 42.0515L23.4259 42.001C25.3431 40.3237 27.1439 38.7892 28.8855 37.305C33.5585 33.323 37.5942 29.884 40.3994 26.5476C43.5381 22.8146 45 19.332 45 15.5876C45 12.1478 43.834 8.93026 41.7168 6.52777ZM27.1752 35.2982C25.674 36.5774 24.1291 37.8939 22.5 39.3101C20.871 37.8941 19.326 36.5775 17.8246 35.2981C8.67876 27.5045 2.63672 22.3558 2.63672 15.5876C2.63672 12.7901 3.5688 10.1917 5.26131 8.27117C6.97324 6.32887 9.34972 5.25916 11.9531 5.25916C15.568 5.25916 17.9047 7.48613 19.2284 9.35433C20.4157 11.0299 21.0352 12.719 21.2465 13.3673C21.4233 13.9101 21.9292 14.2774 22.5 14.2774C23.0708 14.2774 23.5767 13.9101 23.7535 13.3673C23.9648 12.719 24.5843 11.0299 25.7716 9.35424C27.0953 7.48613 29.432 5.25916 33.0469 5.25916C35.6503 5.25916 38.0268 6.32887 39.7386 8.27117C41.4312 10.1917 42.3633 12.7901 42.3633 15.5876C42.3633 22.3558 36.3212 27.5045 27.1752 35.2982Z" fill="black"/>
</svg>
